<?xml version="1.0" encoding="utf-8"?>
<!-- Generator: Adobe Illustrator 21.1.0, SVG Export Plug-In . SVG Version: 6.00 Build 0)  -->
<svg version="1.1" id="Camada_1" xmlns="http://www.w3.org/2000/svg" xmlns:xlink="http://www.w3.org/1999/xlink" x="0px" y="0px"
	 viewBox="0 0 127 63" style="enable-background:new 0 0 127 63;" xml:space="preserve">
<style type="text/css">
	.st0{fill:#EDEDED;}
	.st1{fill:#E5E5E5;}
	.st2{fill:#DDDDDD;}
	.st3{opacity:0.5;}
	.st4{fill:#70706D;}
	.st5{fill:#58CADD;}
	.st6{opacity:0.5;fill:#70706D;}
</style>
<g>
	<path class="st0" d="M114.5,6.5L12.8,6C6.9,6,2.1,10.8,2.1,16.8L2,48.7c0,6,4.7,10.9,10.5,10.9l39,0.2c4.5-2.7,9.1-6.7,10.7-12.2
		c1.3,5.6,5.9,9.6,10.5,12.3l41.5,0.2c5.9,0,10.6-4.8,10.6-10.8l0.1-31.9C125.1,11.4,120.3,6.5,114.5,6.5z"/>
	<path class="st1" d="M12.5,58.6l39,0.2c1.8-1.1,3.6-2.4,5.3-3.9c-16.7,1.3-34.8,0.4-51.2,1C7.5,57.5,9.9,58.6,12.5,58.6z"/>
	<path class="st2" d="M115.2,5.5C112.5,39.1,92,50.2,66.3,53.8c1.9,2,4.1,3.7,6.4,5l41.5,0.2c5.9,0,10.6-4.8,10.6-10.8l0.1-31.9
		C125.1,10.6,120.7,5.9,115.2,5.5z"/>
	<g class="st3">
		<path class="st4" d="M62.2,43.6c-1.6,5.4-7.7,11-12.1,13.6L12.2,57C6.5,57,2,52.3,2,46.5l0,1.3c0,6,4.7,10.9,10.5,10.9l39,0.2
			c4-2.4,8.1-5.8,10.1-10.5C62.7,46.3,62.5,44.7,62.2,43.6z"/>
		<path class="st4" d="M114.5,5.5l-3.3,0c5.7,0,10.3,4.8,10.2,10.6l-0.1,31c0,5.8-4.6,10.5-10.3,10.5l-40.3-0.2
			c-0.7-0.4-1.4-0.9-2.1-1.4c1.3,1.1,2.8,2.1,4.2,3l41.5,0.2c5.9,0,10.6-4.8,10.6-10.8l0.1-31.9C125.1,10.4,120.3,5.5,114.5,5.5z"/>
	</g>
	<path class="st5" d="M111.7,16.7c0,2.7-2.2,5-5,4.9L19,21.3c-2.7,0-5-2.2-4.9-5l0,0c0-2.7,2.2-5,5-4.9l87.7,0.4
		C109.5,11.8,111.7,14,111.7,16.7L111.7,16.7z"/>
	<path class="st6" d="M106.7,20.8L19,20.4c-2.6,0-4.7-2-4.9-4.5c0,0.2,0,0.3,0,0.5c0,2.7,2.2,5,4.9,5l87.7,0.4c2.7,0,5-2.2,5-4.9
		c0-0.2,0-0.3,0-0.5C111.4,18.8,109.3,20.8,106.7,20.8z"/>
</g>
</svg>
