<?xml version="1.0" encoding="utf-8"?>
<!-- Generator: Adobe Illustrator 21.1.0, SVG Export Plug-In . SVG Version: 6.00 Build 0)  -->
<svg version="1.1" id="Camada_1" xmlns="http://www.w3.org/2000/svg" xmlns:xlink="http://www.w3.org/1999/xlink" x="0px" y="0px"
	 viewBox="0 0 38 100" style="enable-background:new 0 0 38 100;" xml:space="preserve">
<style type="text/css">
	.st0{fill:#9C9B97;}
	.st1{fill:#70706D;}
	.st2{fill:#58CADD;}
	.st3{opacity:0.5;fill:#70706D;}
</style>
<g>
	<g>
		<path class="st0" d="M23.5,85.7c0,0-1.2,1.3-3.2,1.7c-1.8,0.3-4.3,0-7.4-2.6c-1.2-30-2.8-58.8-2.8-58.8L22,27l6.4,0.6L23.5,85.7z"
			/>
		<path class="st1" d="M23.5,85.7c0,0-1.2,1.3-3.2,1.7L22,27l6.4,0.6L23.5,85.7z"/>
	</g>
	<g>
		<ellipse transform="matrix(0.772 -0.6357 0.6357 0.772 -8.4805 16.7064)" class="st2" cx="19" cy="20.2" rx="17.2" ry="17.2"/>
		<path class="st3" d="M36.2,20.3c-0.7,3.8-2.7,7.4-6,10.1c-7.3,6-18.2,5-24.2-2.3C3.4,24.8,2.1,20.9,2.1,17
			c-0.9,4.8,0.3,10,3.6,14.1c6,7.3,16.9,8.4,24.2,2.3C34.1,30.1,36.2,25.2,36.2,20.3z"/>
	</g>
	<g>
		
			<ellipse transform="matrix(0.2642 -0.9645 0.9645 0.2642 -71.9506 80.4709)" class="st2" cx="16.8" cy="87.4" rx="12.8" ry="12.8"/>
		<path class="st3" d="M5.2,92.7c1.6,2.4,4.1,4.2,7.1,5c6.8,1.9,13.8-2.1,15.7-8.9c0.8-3,0.5-6.1-0.7-8.7c2.1,3,2.9,6.9,1.8,10.7
			c-1.9,6.8-8.9,10.8-15.7,8.9C9.6,98.7,6.7,96,5.2,92.7z"/>
	</g>
</g>
</svg>
