<?xml version="1.0" encoding="utf-8"?>
<!-- Generator: Adobe Illustrator 21.1.0, SVG Export Plug-In . SVG Version: 6.00 Build 0)  -->
<svg version="1.1" id="Camada_1" xmlns="http://www.w3.org/2000/svg" xmlns:xlink="http://www.w3.org/1999/xlink" x="0px" y="0px"
	 viewBox="0 0 40 101" style="enable-background:new 0 0 40 101;" xml:space="preserve">
<style type="text/css">
	.st0{fill:#9C9B97;}
	.st1{fill:#70706D;}
	.st2{fill:#58CADD;}
	.st3{opacity:0.5;fill:#70706D;}
</style>
<g>
	<g>
		<path class="st0" d="M12.9,83.6c0,0,1.1,1.4,3.1,1.8c1.8,0.4,4.3,0.1,7.4-2.3c2.3-29.5,5-58,5-58l-11.8,0.6L10.2,26L12.9,83.6z"/>
		<path class="st1" d="M12.9,83.6c0,0,1.1,1.4,3.1,1.8l0.6-59.7L10.2,26L12.9,83.6z"/>
	</g>
	<g>
		<path class="st2" d="M8.4,31.8c7,6.2,17.7,5.6,24-1.4c6.2-7,5.6-17.8-1.4-24C24,0.2,13.3,0.8,7,7.8C0.8,14.8,1.4,25.5,8.4,31.8z"
			/>
		<path class="st3" d="M2.8,18.6c0.6,3.8,2.4,7.4,5.5,10.2c7,6.2,17.7,5.6,24-1.4c2.8-3.1,4.2-6.9,4.3-10.8
			c0.7,4.8-0.6,9.9-4.1,13.8c-6.2,7-17,7.6-24,1.4C4.5,28.3,2.6,23.4,2.8,18.6z"/>
	</g>
	<g>
		
			<ellipse transform="matrix(0.6652 -0.7467 0.7467 0.6652 -58.6987 41.9734)" class="st2" cx="17.5" cy="86.4" rx="12.8" ry="12.8"/>
		<path class="st3" d="M4.7,86c0.4,2.9,1.8,5.6,4.1,7.7c5.3,4.7,13.3,4.2,18-1c2.1-2.3,3.1-5.2,3.2-8.1c0.5,3.6-0.5,7.4-3.1,10.4
			c-4.7,5.3-12.8,5.7-18,1C6,93.4,4.6,89.7,4.7,86z"/>
	</g>
</g>
</svg>
