<?xml version="1.0" encoding="utf-8"?>
<!-- Generator: Adobe Illustrator 21.1.0, SVG Export Plug-In . SVG Version: 6.00 Build 0)  -->
<svg version="1.1" id="Camada_1" xmlns="http://www.w3.org/2000/svg" xmlns:xlink="http://www.w3.org/1999/xlink" x="0px" y="0px"
	 viewBox="0 0 314 218.8" style="enable-background:new 0 0 314 218.8;" xml:space="preserve">
<style type="text/css">
	.st0{fill:#58CADD;}
	.st1{opacity:0.5;fill:#70706D;enable-background:new    ;}
	.st2{fill:#EDEDED;}
	.st3{fill:#FFFFFF;}
	.st4{fill:#DDDDDD;}
	.st5{fill:#0F090D;}
	.st6{fill:#232830;}
	.st7{opacity:0.4;fill:#70706D;enable-background:new    ;}
	.st8{fill:#E5E5E5;}
	.st9{fill:#3862C1;}
	.st10{display:none;}
	.st11{display:inline;}
	.st12{display:inline;fill:#EDEDED;}
	.st13{display:inline;fill:#FFFFFF;}
	.st14{display:inline;fill:#DDDDDD;}
	.st15{opacity:0.5;fill:#70706D;}
	.st16{opacity:0.4;fill:#70706D;}
</style>
<g>
	<g>
		<path class="st0" d="M250.6,98c-13.8,6.6-23.3,20.7-23.3,36.9v13.9c0,6,1.3,11.7,3.6,16.8c0.5-0.8,1-1.5,1.5-2.3
			C247.1,141.7,251.6,119.9,250.6,98z"/>
		<path class="st0" d="M267.4,59.2c-6.4,0-12.4,1.5-17.8,4.1c1,21.8-3.6,43.6-18.1,65.5c-0.5,0.8-1,1.5-1.5,2.3
			c6.4,14.3,20.7,24.2,37.4,24.2c22.7,0,41-18.4,41-41v-13.9C308.5,77.6,290.1,59.2,267.4,59.2z"/>
		<path class="st1" d="M291.4,67c6.9,7.4,11.2,17.3,11.2,28.2v13.9c0,22.7-18.4,41-41,41c-8.9,0-17.2-2.9-23.9-7.7
			c7.5,7.9,18,12.9,29.8,12.9c22.7,0,41-18.4,41-41v-13.9C308.5,86.5,301.7,74.4,291.4,67z"/>
	</g>
	<g>
		<path class="st0" d="M87.6,114.2v-13.9c0-22.7-18.4-41-41-41c-22.7,0-41,18.4-41,41v13.9c0,22.7,18.4,41,41,41
			S87.6,136.9,87.6,114.2z"/>
		<path class="st1" d="M87.6,114.2v-13.9c0-13.7-6.8-25.9-17.1-33.3c7,7.4,11.3,17.3,11.3,28.2v13.9c0,22.7-18.4,41-41,41
			c-8.9,0-17.2-2.9-23.9-7.7c7.5,7.9,18,12.9,29.8,12.9C69.2,155.2,87.6,136.9,87.6,114.2z"/>
	</g>
</g>
<path class="st2" d="M232.5,163.5c27.3-41,19.3-82,6-123.1c-21.4-19.2-49.6-31-80.6-31c-66.7,0-120.7,54-120.7,120.7
	c0,1.8,0.2,3.5,0.3,5.3c-0.2,1.8-0.3,3.6-0.3,5.5v17.6c0,32.4,48.9,58.6,81.3,58.6H155C186.5,208.9,213.8,193,232.5,163.5z"/>
<path class="st3" d="M278.7,130.1c0-35.6-15.5-67.6-40.1-89.7c13.2,41,21.3,82-6,123.1c-18.7,29.5-46.1,45.4-77.5,53.6h45.6
	c32.4,0,78-26.3,78-58.6v-17.6c0-1.8-0.1-3.7-0.3-5.5C278.5,133.6,278.7,131.9,278.7,130.1z"/>
<path class="st4" d="M278.7,130.1c0-35.6-15.5-67.6-40.1-89.7c13.2,41,21.3,82-6,123.1c-18.7,29.5-46.1,45.4-77.5,53.6h45.6
	c32.4,0,78-26.3,78-58.6v-17.6c0-1.8-0.1-3.7-0.3-5.5C278.5,133.6,278.7,131.9,278.7,130.1z"/>
<g>
	<path class="st5" d="M228.5,182.7c-6.1,7.7-13.2,14.2-21,19.7c11.1-3.6,18.6-8.7,25-14.7c4.7-4.5,14.3-20.8,12.2-35.6
		C242.1,162.3,237,172.5,228.5,182.7z"/>
	<path class="st6" d="M228.5,182.7c8.5-10.2,13.6-20.4,16.1-30.6c-0.9-6.2-3.8-12.2-10-16.9c-20.9-16-52.9-12.1-80.1-12.1
		c-40.2,0-63-4-81.9,12.1c-20.8,17.7-3.8,46.1,2.9,52.5c13.3,12.6,32.3,21,78.4,21c24.6,0,41.2-2.3,53.4-6.3
		C215.3,196.9,222.3,190.4,228.5,182.7z"/>
	<path class="st7" d="M154,208.8c11.9,0,22-0.5,30.6-1.6c-95.7-7.7-132.4-55.1-69.9-84.4c-17.5,0.3-30.5,2.7-42,12.5
		c-20.8,17.7-3.8,46.1,2.9,52.5C88.9,200.4,107.8,208.8,154,208.8z"/>
	<path class="st8" d="M234.6,135.3c-20.9-16-52.9-12.1-80.1-12.1c-40.2,0-63-4-81.9,12.1c-8,6.8-10.4,15.2-9.9,23.3
		c0.2-7.2,2.9-14.4,9.9-20.4c18.9-16.1,41.7-12.1,81.9-12.1c27.2,0,59.1-3.9,80.1,12.1c5.6,4.3,8.5,9.6,9.7,15.2
		c0.1-0.4,0.2-0.8,0.3-1.2C243.7,145.9,240.8,140,234.6,135.3z"/>
	<path class="st9" d="M126,166.3c7.3-0.2,13.1-2.6,13-5.5s-6.1-5.1-13.4-5c-7.3,0.2-13.1,2.6-13,5.5S118.7,166.5,126,166.3z"/>
	<path class="st9" d="M191.9,166.3c7.3,0.2,13.3-2.1,13.4-5c0.1-2.9-5.7-5.4-13-5.5c-7.3-0.2-13.3,2.1-13.4,5
		S184.7,166.2,191.9,166.3z"/>
</g>
<g class="st10">
	<g class="st11">
		<g>
			<path class="st0" d="M250.6,95.9c-13.8,6.6-23.3,20.7-23.3,36.9v13.9c0,6,1.3,11.7,3.6,16.8c0.5-0.8,1-1.5,1.5-2.3
				C247.1,139.6,251.6,117.7,250.6,95.9z"/>
			<path class="st0" d="M267.4,57.1c-6.4,0-12.4,1.5-17.8,4.1c1,21.8-3.6,43.6-18.1,65.5c-0.5,0.8-1,1.5-1.5,2.3
				c6.4,14.3,20.7,24.2,37.4,24.2c22.7,0,41-18.4,41-41v-14C308.5,75.5,290.1,57.1,267.4,57.1z"/>
			<path class="st1" d="M291.4,64.9c6.9,7.4,11.2,17.3,11.2,28.2V107c0,22.7-18.4,41-41,41c-8.9,0-17.2-2.9-23.9-7.7
				c7.5,7.9,18,12.9,29.8,12.9c22.7,0,41-18.4,41-41v-14C308.5,84.4,301.7,72.3,291.4,64.9z"/>
		</g>
		<g>
			<path class="st0" d="M87.6,112.1V98.2c0-22.7-18.4-41-41-41c-22.7,0-41,18.4-41,41v13.9c0,22.7,18.4,41,41,41
				S87.6,134.7,87.6,112.1z"/>
			<path class="st1" d="M87.6,112.1V98.2c0-13.7-6.8-25.9-17.1-33.3c7,7.4,11.3,17.3,11.3,28.2V107c0,22.7-18.4,41-41,41
				c-8.9,0-17.2-2.9-23.9-7.7c7.5,7.9,18,12.9,29.8,12.9C69.2,153.1,87.6,134.7,87.6,112.1z"/>
		</g>
	</g>
	<path class="st12" d="M232.5,161.4c27.3-41,19.3-82,6-123.1c-21.4-19.2-49.6-31-80.6-31C91.3,7.3,37.3,61.3,37.3,128
		c0,1.8,0.2,3.5,0.3,5.3c-0.2,1.8-0.3,3.6-0.3,5.5v17.6c0,32.4,48.9,58.6,81.3,58.6h36.5C186.5,206.8,213.8,190.8,232.5,161.4z"/>
	<path class="st13" d="M278.7,128c0-35.6-15.5-67.6-40.1-89.7c13.2,41,21.3,82-6,123.1c-18.7,29.5-46.1,45.4-77.5,53.6h45.6
		c32.4,0,78-26.3,78-58.6v-17.6c0-1.8-0.1-3.7-0.3-5.5C278.5,131.5,278.7,129.8,278.7,128z"/>
	<path class="st14" d="M278.7,128c0-35.6-15.5-67.6-40.1-89.7c13.2,41,21.3,82-6,123.1c-18.7,29.5-46.1,45.4-77.5,53.6h45.6
		c32.4,0,78-26.3,78-58.6v-17.6c0-1.8-0.1-3.7-0.3-5.5C278.5,131.5,278.7,129.8,278.7,128z"/>
	<g class="st11">
		<path class="st5" d="M229.5,166c-6,9.4-12.8,17.3-20.4,24.1c10.8-4.4,18.1-10.6,24.2-17.9c4.6-5.5,13.9-25.3,11.8-43.4
			C242.7,141.2,237.8,153.6,229.5,166z"/>
		<path class="st6" d="M229.5,166c8.3-12.4,13.2-24.8,15.7-37.3c-0.9-7.5-3.7-14.8-9.7-20.6c-20.4-19.4-51.4-14.7-77.8-14.7
			c-39,0-61.2-4.9-79.5,14.7c-20.2,21.6-3.7,56.3,2.8,64c12.9,15.4,31.3,25.6,76.1,25.6c23.8,0,40-2.8,51.9-7.7
			C216.7,183.3,223.5,175.4,229.5,166z"/>
		<path class="st7" d="M157.2,197.8c11.6,0,21.3-0.7,29.7-1.9C68.6,187.1,75.7,114.7,119.1,93c-17,0.4-29.6,3.2-40.8,15.2
			c-20.2,21.6-3.7,56.3,2.8,64C94,187.6,112.4,197.8,157.2,197.8z"/>
		<path class="st8" d="M235.4,108.2c-20.3-19.5-51.3-14.8-77.7-14.8c-39,0-61.2-4.9-79.5,14.7c-7.7,8.3-10.1,18.5-9.6,28.4
			c0.2-8.8,2.8-17.6,9.6-24.9c18.3-19.6,40.5-14.7,79.5-14.7c26.4,0,57.4-4.7,77.7,14.7c5.5,5.3,8.3,11.7,9.4,18.5
			c0.1-0.5,0.2-1,0.3-1.5C244.3,121.2,241.5,113.9,235.4,108.2z"/>
		<path class="st8" d="M244.9,130.2c0.3,2,0.5,4,0.6,6c0.1-2.5,0-5-0.3-7.5C245.1,129.2,245,129.7,244.9,130.2z"/>
		<ellipse class="st9" cx="120.9" cy="127.5" rx="12.8" ry="6.4"/>
		<ellipse class="st9" cx="189.9" cy="127.5" rx="12.8" ry="6.4"/>
	</g>
</g>
<g>
	<g>
		<g>
			<path class="st0" d="M250.8,98.2c-13.7,6.6-23.2,20.6-23.2,36.9V149c0,6,1.3,11.7,3.6,16.8c0.5-0.8,1-1.5,1.5-2.2
				C247.2,141.8,251.7,120,250.8,98.2z"/>
			<path class="st0" d="M267.6,59.5c-6.4,0-12.4,1.5-17.8,4.1c1,21.8-3.5,43.6-18.1,65.4c-0.5,0.8-1,1.5-1.5,2.2
				c6.4,14.2,20.7,24.2,37.4,24.2c22.6,0,41-18.4,41-41v-13.9C308.6,77.8,290.2,59.5,267.6,59.5z"/>
			<path class="st15" d="M291.5,67.2c6.9,7.3,11.2,17.2,11.2,28.1v13.9c0,22.6-18.4,41-41,41c-8.9,0-17.2-2.9-23.9-7.7
				c7.5,7.9,18,12.9,29.8,12.9c22.6,0,41-18.4,41-41v-13.9C308.6,86.7,301.8,74.6,291.5,67.2z"/>
		</g>
		<g>
			<path class="st0" d="M88,114.4v-13.9c0-22.6-18.3-41-41-41c-22.6,0-41,18.4-41,41v13.9c0,22.6,18.4,41,41,41
				C69.6,155.4,88,137,88,114.4z"/>
			<path class="st15" d="M88,114.4v-13.9c0-13.7-6.8-25.8-17.1-33.3c6.9,7.3,11.2,17.2,11.2,28.1v13.9c0,22.6-18.4,41-41,41
				c-8.9,0-17.2-2.9-23.9-7.7c7.5,7.9,18,12.9,29.8,12.9C69.6,155.4,88,137,88,114.4z"/>
		</g>
	</g>
	<path class="st2" d="M232.7,163.6c27.3-41,19.2-81.9,6-122.9c-21.3-19.2-49.5-31-80.5-31c-66.6,0-120.5,54-120.5,120.5
		c0,1.8,0.2,3.5,0.3,5.3c-0.2,1.8-0.3,3.6-0.3,5.5v17.6c0,32.3,48.9,58.6,81.2,58.6h36.4C186.7,209,214,193,232.7,163.6z"/>
	<path class="st3" d="M278.8,130.2c0-35.6-15.5-67.5-40.1-89.5c13.2,41,21.3,81.9-6,122.9c-18.7,29.4-46,45.4-77.4,53.5h45.6
		c32.3,0,77.9-26.2,77.9-58.6V141c0-1.8-0.1-3.7-0.3-5.5C278.6,133.7,278.8,132.1,278.8,130.2z"/>
	<path class="st4" d="M278.8,130.2c0-35.6-15.5-67.5-40.1-89.5c13.2,41,21.3,81.9-6,122.9c-18.7,29.4-46,45.4-77.4,53.5h45.6
		c32.3,0,77.9-26.2,77.9-58.6V141c0-1.8-0.1-3.7-0.3-5.5C278.6,133.7,278.8,132.1,278.8,130.2z"/>
	<g>
		<path class="st5" d="M228.8,125.3c-6.1,7.7-13.2,14.2-21,19.7c11.1-3.6,18.6-8.7,24.9-14.7c4.7-4.5,14.3-20.7,12.2-35.6
			C242.4,104.9,237.3,115.1,228.8,125.3z"/>
		<path class="st6" d="M228.8,125.3c8.5-10.2,13.6-20.4,16.1-30.5c-0.9-6.2-3.8-12.1-10-16.9c-20.9-15.9-52.8-12.1-80-12.1
			c-40.2,0-62.9-4-81.8,12.1c-20.7,17.7-3.8,46.1,2.9,52.4c13.3,12.6,32.2,21,78.3,21c24.5,0,41.2-2.3,53.4-6.3
			C215.6,139.5,222.7,133,228.8,125.3z"/>
		<path class="st16" d="M154.4,151.3c11.9,0,21.9-0.5,30.5-1.6c-95.6-7.7-132.2-55-69.8-84.3c-17.5,0.3-30.5,2.6-42,12.4
			c-20.7,17.7-3.8,46.1,2.9,52.4C89.4,142.9,108.3,151.3,154.4,151.3z"/>
		<path class="st8" d="M234.9,77.9c-20.9-15.9-52.8-12.1-80-12.1c-40.2,0-62.9-4-81.8,12.1c-8,6.8-10.3,15.2-9.9,23.3
			c0.2-7.2,2.9-14.4,9.9-20.4c18.9-16.1,41.6-12.1,81.8-12.1c27.2,0,59.1-3.9,80,12.1c5.6,4.3,8.5,9.6,9.7,15.2
			c0.1-0.4,0.2-0.8,0.3-1.2C244,88.5,241.1,82.6,234.9,77.9z"/>
		<path class="st9" d="M126.4,89.3c7.3-0.2,13.1-2.4,13-5c-0.1-2.6-6.1-4.6-13.3-4.4c-7.3,0.2-13.1,2.4-13,5
			C113.2,87.5,119.2,89.5,126.4,89.3z"/>
		<path class="st9" d="M193.7,89c7.3,0.2,13.3-1.6,13.3-4c0.1-2.4-5.7-4.4-13-4.6c-7.3-0.2-13.2,1.6-13.3,4
			C180.7,86.7,186.5,88.8,193.7,89z"/>
	</g>
</g>
</svg>
