<?xml version="1.0" encoding="utf-8"?>
<!-- Generator: Adobe Illustrator 21.1.0, SVG Export Plug-In . SVG Version: 6.00 Build 0)  -->
<svg version="1.1" id="Camada_1" xmlns="http://www.w3.org/2000/svg" xmlns:xlink="http://www.w3.org/1999/xlink" x="0px" y="0px"
	 viewBox="0 0 60 58" style="enable-background:new 0 0 60 58;" xml:space="preserve">
<style type="text/css">
	.st0{fill:#EDEDED;}
	.st1{fill:#B5B5B4;}
</style>
<g>
	<polygon class="st0" points="27,5 25,6.7 25,12.7 26.2,16.5 35.5,24.8 24.6,35.2 1.2,34.4 0.4,40.4 39.7,53.5 56.6,35.7 60.2,18.6 
		53.4,10.6 	"/>
	<polygon class="st1" points="25,6.7 25,15.7 26.2,16.5 35.5,24.8 41.6,20.7 26.6,13.7 25.8,10.5 	"/>
	<polygon class="st1" points="1.2,34.4 0.4,40.4 39.7,53.5 56.6,35.7 60.2,18.6 53.4,10.6 56.8,19.4 52.6,33.9 38.4,48.6 2.2,39.4 	
		"/>
</g>
</svg>
