<?xml version="1.0" encoding="utf-8"?>
<!-- Generator: Adobe Illustrator 21.1.0, SVG Export Plug-In . SVG Version: 6.00 Build 0)  -->
<svg version="1.1" id="Camada_1" xmlns="http://www.w3.org/2000/svg" xmlns:xlink="http://www.w3.org/1999/xlink" x="0px" y="0px"
	 viewBox="0 0 60 58" style="enable-background:new 0 0 60 58;" xml:space="preserve">
<style type="text/css">
	.st0{fill:#EDEDED;}
	.st1{fill:#B5B5B4;}
</style>
<g>
	<polygon class="st0" points="34,4.4 36,6.1 36,12.2 34.7,16 25.2,24.3 36.1,34.9 59.9,34.4 60.6,40.4 20.7,53.3 3.8,35.2 0.3,17.8 
		7.2,9.8 	"/>
	<polygon class="st1" points="36,6.1 36,15.2 34.7,16 25.2,24.3 19.1,20.1 34.3,13.1 35.1,9.9 	"/>
	<polygon class="st1" points="59.9,34.4 60.6,40.4 20.7,53.3 3.8,35.2 0.3,17.8 7.2,9.8 3.7,18.7 7.8,33.4 22.1,48.4 58.8,39.4 	"/>
</g>
</svg>
