<?xml version="1.0" encoding="utf-8"?>
<!-- Generator: Adobe Illustrator 21.1.0, SVG Export Plug-In . SVG Version: 6.00 Build 0)  -->
<svg version="1.1" id="Camada_1" xmlns="http://www.w3.org/2000/svg" xmlns:xlink="http://www.w3.org/1999/xlink" x="0px" y="0px"
	 viewBox="0 0 78 124" style="enable-background:new 0 0 78 124;" xml:space="preserve">
<style type="text/css">
	.st0{fill:#EDEDED;}
	.st1{opacity:0.5;fill:#70706D;}
	.st2{fill:#9C9B97;}
	.st3{fill:#70706D;}
</style>
<path class="st0" d="M8.9,31.2c-0.8,18,13.2,33.2,31.2,33.9c18,0.8,33.2-13.2,33.9-31.2C74.8,15.9,60.8,0.8,42.9,0
	C24.9-0.7,9.7,13.2,8.9,31.2z"/>
<path class="st1" d="M40.4,57.6c16.7,0.7,31-11.3,33.5-27.4c0.1,1.2,0.1,2.5,0.1,3.8c-0.8,18-15.9,31.9-33.9,31.2
	c-18-0.8-31.9-15.9-31.2-33.9c0.1-1.3,0.2-2.5,0.4-3.8C10.5,43.7,23.7,56.9,40.4,57.6z"/>
<g>
	<path class="st2" d="M25.7,64.7l10.6,55.4c0,0,1.8,1.6,4.4,2.8c3,1.4,7.2,2.1,10.7-1.4c2.4-17,10.1-66,10.1-66S48.1,49.2,37,53.4
		C32.5,55,28.4,58.5,25.7,64.7z"/>
	<path class="st3" d="M25.7,64.7l10.6,55.4c0,0,1.8,1.6,4.4,2.8L37,53.4C32.5,55,28.4,58.5,25.7,64.7z"/>
</g>
</svg>
