<?xml version="1.0" encoding="utf-8"?>
<!-- Generator: Adobe Illustrator 21.1.0, SVG Export Plug-In . SVG Version: 6.00 Build 0)  -->
<svg version="1.1" id="Camada_1" xmlns="http://www.w3.org/2000/svg" xmlns:xlink="http://www.w3.org/1999/xlink" x="0px" y="0px"
	 viewBox="0 0 74 127" style="enable-background:new 0 0 74 127;" xml:space="preserve">
<style type="text/css">
	.st0{fill:#EDEDED;}
	.st1{opacity:0.5;fill:#70706D;}
	.st2{fill:#9C9B97;}
	.st3{fill:#70706D;}
</style>
<g>
	<path class="st0" d="M69.1,31C70.7,49.1,57.2,65.1,39,66.6C20.9,68.2,4.9,54.7,3.4,36.6C1.9,18.4,15.3,2.5,33.5,0.9
		C51.6-0.6,67.6,12.9,69.1,31z"/>
	<path class="st1" d="M38.4,59C21.5,60.5,6.6,48.9,3.3,32.7c0,1.3,0,2.5,0.1,3.8C4.9,54.7,20.9,68.2,39,66.6
		C57.2,65.1,70.7,49.1,69.1,31c-0.1-1.3-0.3-2.5-0.6-3.8C68,43.7,55.3,57.6,38.4,59z"/>
	<g>
		<path class="st2" d="M53.7,65.6l-8.3,56.5c0,0-1.8,1.7-4.3,3c-3,1.5-7.2,2.4-10.9-0.9C26.9,107.1,17,57.9,17,57.9
			s13.3-6.9,24.7-3.2C46.3,56.1,50.6,59.4,53.7,65.6z"/>
		<path class="st3" d="M53.7,65.6l-8.3,56.5c0,0-1.8,1.7-4.3,3l0.7-70.5C46.3,56.1,50.6,59.4,53.7,65.6z"/>
	</g>
</g>
</svg>
