<?xml version="1.0" encoding="utf-8"?>
<!-- Generator: Adobe Illustrator 21.1.0, SVG Export Plug-In . SVG Version: 6.00 Build 0)  -->
<svg version="1.1" id="Camada_1" xmlns="http://www.w3.org/2000/svg" xmlns:xlink="http://www.w3.org/1999/xlink" x="0px" y="0px"
	 viewBox="0 0 64 135" style="enable-background:new 0 0 64 135;" xml:space="preserve">
<style type="text/css">
	.st0{fill:#9C9B97;}
	.st1{fill:#70706D;}
	.st2{fill:#A5A5A5;}
	.st3{fill:#B5B5B4;}
</style>
<g>
	<path class="st0" d="M7.1,33.2C22.1,67.5,32,117,32,117l8.3-2.7l13.6-4.5c0,0,0.3-76.2-4.6-93.6C47,8.4,35.4,4.2,24.6,4.8
		C11.1,5.6-1.3,14.1,7.1,33.2z"/>
	<path class="st1" d="M6.7,33.2c13,34.3,22.2,84.1,22.2,84.1l9.9-2.5C36.9,58.6,26.5,22.6,21.9,4.8C10.2,5.6-0.5,14.1,6.7,33.2z"/>
</g>
<path class="st2" d="M29.8,122.7c0.9,5.9,6.5,9.9,12.4,9l7.7-1.2c5.9-0.9,9.9-6.5,9-12.4l-0.9-5.4c-0.9-5.9-6.5-10-12.4-9l-7.7,1.2
	c-5.9,0.9-9.9,6.5-9,12.4L29.8,122.7z"/>
<path class="st3" d="M36.8,105.1c-3.1,2.3-4.8,6.2-4.2,10.3l0.9,5.4c0.9,5.9,6.5,10,12.4,9l7.7-1.2c0.4-0.1,0.8-0.2,1.2-0.3
	c-1.4,1-3,1.8-4.8,2.1l-7.7,1.2c-5.9,0.9-11.5-3.1-12.4-9l-0.9-5.4C28.1,111.7,31.6,106.6,36.8,105.1z"/>
</svg>
