<?xml version="1.0" encoding="utf-8"?>
<!-- Generator: Adobe Illustrator 21.1.0, SVG Export Plug-In . SVG Version: 6.00 Build 0)  -->
<svg version="1.1" id="Camada_1" xmlns="http://www.w3.org/2000/svg" xmlns:xlink="http://www.w3.org/1999/xlink" x="0px" y="0px"
	 viewBox="0 0 65 135" style="enable-background:new 0 0 65 135;" xml:space="preserve">
<style type="text/css">
	.st0{fill:#9C9B97;}
	.st1{fill:#70706D;}
	.st2{fill:#A5A5A5;}
	.st3{fill:#B5B5B4;}
</style>
<g>
	<g>
		<path class="st0" d="M58.6,33.4C43.4,67.6,33,116.9,33,116.9l-8.3-2.8l-13.6-4.6c0,0,0.3-76.2,5.5-93.6
			C18.9,8.3,30.5,4.1,41.3,4.9C54.8,5.8,67.1,14.4,58.6,33.4z"/>
		<path class="st1" d="M59,33.4c-13.3,34.2-22.9,83.9-22.9,83.9l-9.9-2.6c2.4-56.1,13.1-92,17.9-109.8C55.7,5.8,66.4,14.4,59,33.4z"
			/>
	</g>
	<path class="st2" d="M35.2,122.7c-1,5.9-6.6,9.9-12.5,8.9l-7.7-1.3c-5.9-1-9.9-6.6-8.9-12.5l0.9-5.4c1-5.9,6.6-9.9,12.5-8.9
		l7.6,1.3c5.9,1,9.9,6.6,8.9,12.5L35.2,122.7z"/>
	<path class="st3" d="M28.3,105.1c3.1,2.4,4.8,6.3,4.1,10.3l-0.9,5.4c-1,5.9-6.6,9.9-12.5,8.9l-7.6-1.3c-0.4-0.1-0.8-0.2-1.2-0.3
		c1.4,1.1,3,1.8,4.8,2.1l7.6,1.3c5.9,1,11.5-3,12.5-8.9l0.9-5.4C36.9,111.7,33.5,106.6,28.3,105.1z"/>
</g>
</svg>
