<?xml version="1.0" encoding="utf-8"?>
<!-- Generator: Adobe Illustrator 21.1.0, SVG Export Plug-In . SVG Version: 6.00 Build 0)  -->
<svg version="1.1" id="Camada_1" xmlns="http://www.w3.org/2000/svg" xmlns:xlink="http://www.w3.org/1999/xlink" x="0px" y="0px"
	 viewBox="0 0 75 135" style="enable-background:new 0 0 75 135;" xml:space="preserve">
<style type="text/css">
	.st0{fill:#EDEDED;}
	.st1{fill:#58CADD;}
	.st2{fill:#B5B5B4;}
	.st3{opacity:0.5;fill:#B5B5B4;}
	.st4{fill:#EFEFEF;}
</style>
<g>
	<path class="st0" d="M35.5,131.8c23.8,3.4,33-5.2,35.8-18C75,96.5,67,71.6,67.4,58.2C68.1,35.1,86.2,9.6,52.6,4.9
		C19,0.1,24.9,42.4,24.2,57.6c-0.8,17.5-3,22.5-8.1,32c-2.2,4.1-6.8,9.1-10.2,14.4c0,0,0,0,0,0C-1,114.9-2.3,126.4,35.5,131.8z"/>
	<path class="st1" d="M35.5,131.8c23.8,3.4,33-5.2,35.8-18l0,0c0,0,0.1-13.5-18.5-12.7c-15.2,0.7-34.8-8.8-46.8,2.9c0,0,0,0,0,0
		C-1,114.9-2.3,126.4,35.5,131.8z"/>
	<path class="st2" d="M64.1,113.9c3.7-18-4.4-44-4-57.9c0.5-18.6,11.3-38.6,0.9-49.1c21.8,7.8,7,30.5,6.3,51.4
		C67,71.5,75,96.5,71.3,113.7c-2.3,10.5-8.9,18.2-24.4,18.7C57.4,130,62.2,123,64.1,113.9z"/>
	<g>
		<g>
			<path class="st1" d="M55.1,34c-1.6,9.8-9,16.8-16.4,15.6c-7.4-1.2-12-10.2-10.4-20.1c1.7-9.8,9-16.8,16.4-15.6
				C52.1,15.2,56.7,24.1,55.1,34z"/>
			<path class="st3" d="M52.2,34.1c1.6-9.8-3-18.8-10.4-20.1c-0.3,0-0.5-0.1-0.8-0.1c1.2-0.2,2.4-0.3,3.6-0.1
				c7.4,1.2,12,10.2,10.4,20.1c-1.6,9.5-8.5,16.3-15.6,15.7C45.5,48.5,50.9,42.3,52.2,34.1z"/>
		</g>
		<g>
			<path class="st4" d="M46.3,30.3c-0.9,5.7-5.2,9.7-9.4,9c-4.3-0.7-6.9-5.9-6-11.6c0.9-5.7,5.2-9.7,9.4-9
				C44.5,19.5,47.2,24.7,46.3,30.3z"/>
			<path class="st3" d="M44.1,30.4c0.9-5.7-1.7-10.9-6-11.6c0.7-0.2,1.5-0.2,2.3-0.1c4.3,0.7,6.9,5.9,6,11.6c-0.9,5.7-5.2,9.7-9.4,9
				l0,0C40.4,38.6,43.4,35.1,44.1,30.4z"/>
		</g>
	</g>
</g>
</svg>
