<?xml version="1.0" encoding="utf-8"?>
<!-- Generator: Adobe Illustrator 21.1.0, SVG Export Plug-In . SVG Version: 6.00 Build 0)  -->
<svg version="1.1" id="Camada_1" xmlns="http://www.w3.org/2000/svg" xmlns:xlink="http://www.w3.org/1999/xlink" x="0px" y="0px"
	 viewBox="0 0 80 135" style="enable-background:new 0 0 80 135;" xml:space="preserve">
<style type="text/css">
	.st0{fill:#EDEDED;}
	.st1{fill:#58CADD;}
	.st2{fill:#B5B5B4;}
	.st3{opacity:0.5;fill:#B5B5B4;}
	.st4{fill:#EFEFEF;}
</style>
<path class="st0" d="M42.2,132.3c-24.1,3.2-33.3-5.6-35.9-18.5c-3.6-17.5,4.7-42.6,4.4-56C10,34.4-8,8.6,26,4.1
	c34-4.5,27.7,38.1,28.2,53.5C54.9,75.2,57,80.3,62.1,90c2.2,4.1,6.8,9.3,10.2,14.6c0,0,0,0,0,0C79.1,115.6,80.3,127.3,42.2,132.3z"
	/>
<path class="st1" d="M42.2,132.3c-24.1,3.2-33.3-5.6-35.9-18.5l0,0c0,0,0-13.7,18.8-12.6c15.4,0.8,35.3-8.6,47.2,3.4c0,0,0,0,0,0
	C79.1,115.6,80.3,127.3,42.2,132.3z"/>
<path class="st2" d="M13.4,114c-3.6-18.2,4.8-44.4,4.5-58.4C17.6,36.8,6.9,16.5,17.4,6c-22,7.6-7.3,30.7-6.8,51.8
	c0.3,13.4-8,38.5-4.4,56c2.2,10.6,8.8,18.4,24.5,19.1C20.1,130.4,15.2,123.2,13.4,114z"/>
<g>
	<g>
		<path class="st1" d="M23.2,33.5c1.6,10,8.9,17.1,16.4,15.9c7.5-1.2,12.2-10.2,10.7-20.2c-1.6-9.9-8.9-17.1-16.4-15.9
			C26.4,14.5,21.7,23.5,23.2,33.5z"/>
		<path class="st3" d="M26.1,33.6c-1.6-9.9,3.2-19,10.7-20.2c0.3,0,0.5-0.1,0.8-0.1c-1.2-0.2-2.4-0.3-3.6-0.1
			c-7.5,1.2-12.2,10.2-10.7,20.2c1.5,9.6,8.4,16.5,15.6,15.9C32.8,48.2,27.4,41.9,26.1,33.6z"/>
	</g>
	<g>
		<path class="st4" d="M32.2,29.9c0.9,5.7,5.1,9.8,9.4,9.2c4.3-0.7,7.1-5.9,6.2-11.6c-0.9-5.7-5.1-9.8-9.4-9.2
			C34,18.9,31.2,24.1,32.2,29.9z"/>
		<path class="st3" d="M34.3,30c-0.9-5.7,1.8-10.9,6.1-11.6c-0.7-0.2-1.5-0.2-2.3-0.1c-4.3,0.7-7.1,5.9-6.1,11.6
			c0.9,5.7,5.1,9.8,9.4,9.2l0,0C38,38.3,35.1,34.7,34.3,30z"/>
	</g>
</g>
</svg>
