<?xml version="1.0" encoding="utf-8"?>
<!-- Generator: Adobe Illustrator 21.1.0, SVG Export Plug-In . SVG Version: 6.00 Build 0)  -->
<svg version="1.1" id="Camada_1" xmlns="http://www.w3.org/2000/svg" xmlns:xlink="http://www.w3.org/1999/xlink" x="0px" y="0px"
	 viewBox="0 0 202 190" style="enable-background:new 0 0 202 190;" xml:space="preserve">
<style type="text/css">
	.st0{fill:#9C9B97;}
	.st1{fill:#70706D;}
	.st2{fill:#EDEDED;}
	.st3{fill:#DDDDDD;}
	.st4{opacity:0.5;fill:#70706D;}
	.st5{fill:#58CADD;}
	.st6{fill:#F0AE00;}
	.st7{fill:#333333;}
	.st8{opacity:0.6;fill:#E02420;}
	.st9{fill:#E02420;}
</style>
<g>
	<rect x="83" y="11" transform="matrix(4.330335e-03 -1 1 4.330335e-03 82.7403 121.6637)" class="st0" width="39" height="16.6"/>
	<rect x="89" y="17" transform="matrix(4.330335e-03 -1 1 4.330335e-03 88.6764 127.6774)" class="st1" width="39" height="4.6"/>
</g>
<g>
	<path class="st1" d="M32,96.2l139.4,0.6c0,0-23.3,31.6-23.5,67.8c-0.1,30.1-46.6,25-46.6,25s-46.4-10-46.3-24.4
		C55.2,130,32,96.2,32,96.2z"/>
	<path class="st0" d="M50.5,96.3l102.4,0.4c0,0-17.2,31.6-17.3,67.9c-0.1,30.1-34.3,25-34.3,25s-34-9.9-34-24.3
		C67.5,130,50.5,96.3,50.5,96.3z"/>
	<path class="st2" d="M144.8,10.4c-11.3,0.1-16.8,20.2-43.4,20.1C72.4,30.4,69.3,10.2,58,9.9C42.3,9.6,5.5,22,4.2,37.6
		c-2.8,32.7,14.5,86.7,96.8,87.1c85.1,0.4,100.1-53.5,97.6-86.2C197.4,22.9,160.5,10.2,144.8,10.4z"/>
	<path class="st3" d="M198.6,38.5C198,30.9,189,24,178.1,19c17.4,61-42.8,95.8-95.2,104.7c5.7,0.7,11.7,1,18.1,1.1
		C186.2,125.1,201.1,71.2,198.6,38.5z"/>
	<path class="st4" d="M101,121.3C25,120.9,4.5,74.9,4,42.1C3.1,75,22.3,124.4,101,124.7c80.7,0.3,98.3-48.1,97.8-81
		C198.1,76.5,179,121.6,101,121.3z"/>
	<g>
		<path class="st5" d="M67.8,58l-5.5-0.4c0,0-19.6-13.8-22.3-20.9c-2.1-5.8-3.6-12.6-5.9-15.1c-2.6-3.4-5.4-5.1-5.4-5.1l0.6-0.3
			L30,16c0,0,5.6,2.5,9.1,15.8c3.5,13.3,24.8,23.9,24.8,23.9l2.3,1.3L67.8,58z"/>
		<path class="st4" d="M66.2,57C66,57.2,66,57.8,65.8,58c-2.6-0.4-10.8-6.4-16.4-11c-2.1-1.7-4.1-3.8-4.9-4.7
			c-3.1-3.2-4.3-5.1-6.7-13.2c-0.9-2.4-1.8-5.4-3.7-8.1c-1.4-2.1-3.6-3.7-4.7-4.6L30,16c0,0,5.6,2.5,9.1,15.8
			c3.5,13.3,24.8,23.9,24.8,23.9L66.2,57z"/>
	</g>
	<g>
		<path class="st5" d="M134.6,58.3l5.5-0.3c0,0,19.8-13.7,22.4-20.7c2.2-5.8,3.7-12.6,6.1-15c2.7-3.4,5.4-5,5.4-5l-0.6-0.3l-0.6-0.2
			c0,0-5.6,2.4-9.2,15.7c-3.6,13.2-25,23.7-25,23.7l-2.3,1.3L134.6,58.3z"/>
		<path class="st4" d="M136.3,57.3c0.1,0.2,0.2,0.8,0.3,0.9c2.6-0.4,10.9-6.4,16.5-10.9c2.1-1.7,4.1-3.8,4.9-4.7
			c3.1-3.2,4.4-5.1,6.8-13.2c0.9-2.4,1.9-5.3,3.8-8.1c1.4-2,3.6-3.7,4.8-4.6l-0.6-0.2c0,0-5.6,2.4-9.2,15.7
			c-3.6,13.2-25,23.7-25,23.7L136.3,57.3z"/>
	</g>
	
		<ellipse transform="matrix(4.330335e-03 -1 1 4.330335e-03 28.1283 173.63)" class="st5" cx="101.3" cy="72.7" rx="31.4" ry="44.4"/>
	<path class="st4" d="M136.3,53.6c4.4,4.9,6.9,10.7,6.9,16.9c-0.1,17.3-20,31.3-44.5,31.2c-14.2-0.1-26.9-4.9-35-12.3
		c7.8,8.8,21.6,14.6,37.4,14.7c24.5,0.1,44.5-13.9,44.5-31.2C145.7,65.6,142.2,58.9,136.3,53.6z"/>
	<g>
		<g>
			
				<ellipse transform="matrix(4.330335e-03 -1 1 4.330335e-03 26.9135 173.7414)" class="st6" cx="100.7" cy="73.4" rx="18.4" ry="18.4"/>
			<path class="st0" d="M83.3,74.6c0-10.1,8.3-18.3,18.4-18.3c6,0,11.2,2.9,14.6,7.4c-3.2-5.2-8.9-8.7-15.5-8.7
				c-10.1,0-18.4,8.1-18.4,18.3c0,4.2,1.4,8,3.7,11.1C84.3,81.5,83.3,78.2,83.3,74.6z"/>
		</g>
		<g>
			<g>
				<g>
					<path class="st0" d="M96.7,73.6l-0.1,1.1c0,0-0.1,0-0.2,0c0-0.1,0,0,0,0c-0.5,0-1.9,0.3-3.4,1.2c-4.6,2.7-7.3,1.3-8.1,0.7
						c-0.2-0.1-0.3-0.2-0.3-0.2c0-2.2,0.2-2.2,0.2-2.2L96.7,73.6z"/>
					<path class="st7" d="M96.7,73.6l-0.1,1.1c0,0-0.1,0-0.2,0c0-0.1,0,0,0,0c-1.2-0.9-4.6,1.4-9.1,2c-1.1,0.2-1.8,0.1-2.3,0
						c-0.2-0.1-0.3-0.2-0.3-0.2c0-2.2,0.2-2.2,0.2-2.2L96.7,73.6z"/>
				</g>
				<g>
					<path class="st0" d="M106.2,75.9l0.1-1.2c0,0,0.1,0,0.2,0c0,0.1,0,0,0,0c0.5,0,2-0.4,3.4-1.4c4.7-3.1,7.3-1.5,8.1-0.8
						c0.2,0.2,0.3,0.2,0.3,0.2c0,2.4-0.2,2.4-0.2,2.4L106.2,75.9z"/>
					<path class="st7" d="M106.2,75.9l0.1-1.2c0,0,0.1,0,0.2,0c0,0.1,0,0,0,0c1.2,1,4.6-1.5,9.2-2.2c1.1-0.2,1.8-0.2,2.3,0
						c0.2,0.2,0.3,0.2,0.3,0.2c0,2.4-0.2,2.4-0.2,2.4L106.2,75.9z"/>
				</g>
			</g>
			<g>
				<g>
					<path class="st0" d="M96.7,74.4l0.1,1.1c0,0-0.1,0-0.2,0.1c0,0,0,0,0,0c-0.5,0.1-1.9,0.7-3.1,1.8c-4.1,3.5-6.9,2.5-7.8,2.1
						c-0.2-0.1-0.3-0.2-0.3-0.2c-0.4-2.1-0.2-2.2-0.2-2.2L96.7,74.4z"/>
					<path class="st7" d="M96.7,74.4l0.1,1.1c0,0-0.1,0-0.2,0.1c0,0,0,0,0,0c-1.3-0.7-4.3,2.1-8.6,3.5c-1,0.3-1.8,0.4-2.3,0.4
						c-0.2-0.1-0.3-0.2-0.3-0.2c-0.4-2.1-0.2-2.2-0.2-2.2L96.7,74.4z"/>
				</g>
				<g>
					<path class="st0" d="M106.3,75.1l-0.1-1.2c0,0,0.1,0,0.2-0.1c0,0.1,0,0,0,0c0.5-0.1,1.9-0.7,3.1-2c4.1-3.8,6.9-2.7,7.8-2.2
						c0.2,0.1,0.3,0.2,0.3,0.2c0.4,2.4,0.2,2.4,0.2,2.4L106.3,75.1z"/>
					<path class="st7" d="M106.3,75.1l-0.1-1.2c0,0,0.1,0,0.2-0.1c0,0.1,0,0,0,0c1.3,0.7,4.3-2.3,8.6-3.8c1-0.4,1.8-0.5,2.3-0.4
						c0.2,0.1,0.3,0.2,0.3,0.2c0.4,2.4,0.2,2.4,0.2,2.4L106.3,75.1z"/>
				</g>
			</g>
			<g>
				<g>
					<path class="st0" d="M96.7,75.2l0.3,1.1c0,0-0.1,0-0.1,0.1c0,0,0,0,0,0c-0.4,0.2-1.7,1-2.8,2.3c-3.4,4.1-6.4,3.7-7.4,3.4
						c-0.2-0.1-0.3-0.1-0.3-0.1c-0.7-2.1-0.6-2.1-0.6-2.1L96.7,75.2z"/>
					<path class="st7" d="M96.7,75.2l0.3,1.1c0,0-0.1,0-0.1,0.1c0,0,0,0,0,0c-1.4-0.4-3.9,2.9-7.9,5c-1,0.5-1.7,0.7-2.2,0.8
						c-0.2-0.1-0.3-0.1-0.3-0.1c-0.7-2.1-0.6-2.1-0.6-2.1L96.7,75.2z"/>
				</g>
				<g>
					<path class="st0" d="M106.4,74.2L106,73c0,0,0.1,0,0.1-0.1c0,0.1,0,0,0,0c0.4-0.2,1.7-1,2.7-2.5c3.3-4.5,6.3-3.9,7.3-3.5
						c0.2,0.1,0.3,0.1,0.3,0.1c0.8,2.3,0.7,2.3,0.7,2.3L106.4,74.2z"/>
					<path class="st7" d="M106.4,74.2L106,73c0,0,0.1,0,0.1-0.1c0,0.1,0,0,0,0c1.4,0.5,3.8-3,7.8-5.2c0.9-0.5,1.6-0.8,2.2-0.8
						c0.2,0.1,0.3,0.1,0.3,0.1c0.8,2.3,0.7,2.3,0.7,2.3L106.4,74.2z"/>
				</g>
			</g>
			<g>
				<g>
					<path class="st0" d="M96.9,76l0.5,1c0,0,0,0-0.1,0.1c0,0,0,0,0,0c-0.4,0.3-1.5,1.3-2.3,2.8c-2.6,4.7-5.7,4.8-6.7,4.6
						c-0.2,0-0.4-0.1-0.4-0.1c-1.1-1.9-1-2-1-2L96.9,76z"/>
					<path class="st7" d="M96.9,76l0.5,1c0,0,0,0-0.1,0.1c0,0,0,0,0,0c-1.5-0.2-3.3,3.5-6.9,6.3c-0.9,0.7-1.5,1-2,1.2
						c-0.2,0-0.4-0.1-0.4-0.1c-1.1-1.9-1-2-1-2L96.9,76z"/>
				</g>
				<g>
					<path class="st0" d="M106.2,73.4l-0.5-1.1c0,0,0.1,0,0.1-0.1c0,0.1,0,0,0,0c0.4-0.3,1.5-1.3,2.2-2.9c2.5-5,5.6-4.9,6.6-4.8
						c0.2,0,0.4,0.1,0.4,0.1c1.2,2.1,1,2.2,1,2.2L106.2,73.4z"/>
					<path class="st7" d="M106.2,73.4l-0.5-1.1c0,0,0.1,0,0.1-0.1c0,0.1,0,0,0,0c1.5,0.2,3.2-3.7,6.8-6.5c0.8-0.7,1.5-1,2-1.2
						c0.2,0,0.4,0.1,0.4,0.1c1.2,2.1,1,2.2,1,2.2L106.2,73.4z"/>
				</g>
			</g>
			<g>
				<g>
					<path class="st0" d="M97.2,76.8l0.7,0.9c0,0,0,0-0.1,0.1c0,0,0,0,0,0c-0.3,0.3-1.3,1.5-1.8,3.1c-1.8,5.1-4.7,5.7-5.8,5.7
						c-0.2,0-0.4,0-0.4,0c-1.4-1.7-1.3-1.8-1.3-1.8L97.2,76.8z"/>
					<path class="st7" d="M97.2,76.8l0.7,0.9c0,0,0,0-0.1,0.1c0,0,0,0,0,0c-1.5,0.1-2.7,4-5.7,7.4c-0.7,0.8-1.3,1.3-1.8,1.5
						c-0.2,0-0.4,0-0.4,0c-1.4-1.7-1.3-1.8-1.3-1.8L97.2,76.8z"/>
				</g>
				<g>
					<path class="st0" d="M106,72.5l-0.7-1c0,0,0.1,0,0.1-0.1c0.1,0.1,0,0,0,0c0.3-0.4,1.3-1.5,1.7-3.3c1.6-5.3,4.6-5.8,5.7-5.8
						c0.2,0,0.4,0,0.4,0c1.5,1.9,1.4,2,1.4,2L106,72.5z"/>
					<path class="st7" d="M106,72.5l-0.7-1c0,0,0.1,0,0.1-0.1c0.1,0.1,0,0,0,0c1.5,0,2.6-4.2,5.6-7.6c0.7-0.8,1.3-1.3,1.8-1.5
						c0.2,0,0.4,0,0.4,0c1.5,1.9,1.4,2,1.4,2L106,72.5z"/>
				</g>
			</g>
			<g>
				<g>
					<path class="st0" d="M97.7,77.5l0.8,0.8c0,0,0,0-0.1,0.2c0,0,0,0,0,0c-0.3,0.4-1,1.7-1.2,3.4c-0.9,5.3-3.7,6.4-4.7,6.6
						c-0.2,0-0.4,0.1-0.4,0.1c-1.7-1.4-1.6-1.5-1.6-1.5L97.7,77.5z"/>
					<path class="st7" d="M97.7,77.5l0.8,0.8c0,0,0,0-0.1,0.2c0,0,0,0,0,0c-1.4,0.3-1.9,4.4-4.4,8.2c-0.6,0.9-1.1,1.5-1.5,1.8
						c-0.2,0-0.4,0.1-0.4,0.1c-1.7-1.4-1.6-1.5-1.6-1.5L97.7,77.5z"/>
				</g>
				<g>
					<path class="st0" d="M105.6,71.8l-0.9-0.9c0,0,0-0.1,0.1-0.2c0.1,0,0,0,0,0c0.3-0.4,1-1.7,1.1-3.5c0.6-5.5,3.5-6.5,4.6-6.7
						c0.2,0,0.4-0.1,0.4-0.1c1.8,1.6,1.7,1.7,1.7,1.7L105.6,71.8z"/>
					<path class="st7" d="M105.6,71.8l-0.9-0.9c0,0,0-0.1,0.1-0.2c0.1,0,0,0,0,0c1.5-0.3,1.8-4.6,4.2-8.4c0.6-0.9,1-1.5,1.5-1.8
						c0.2,0,0.4-0.1,0.4-0.1c1.8,1.6,1.7,1.7,1.7,1.7L105.6,71.8z"/>
				</g>
			</g>
			<g>
				<g>
					<path class="st0" d="M98.3,78.1l0.9,0.6c0,0,0,0.1-0.1,0.2c0,0,0,0,0,0c-0.2,0.4-0.7,1.8-0.6,3.6c0,5.4-2.5,7-3.5,7.3
						c-0.2,0.1-0.3,0.1-0.3,0.1c-1.9-1.1-1.8-1.2-1.8-1.2L98.3,78.1z"/>
					<path class="st7" d="M98.3,78.1l0.9,0.6c0,0,0,0.1-0.1,0.2c0,0,0,0,0,0c-1.4,0.6-1.2,4.7-2.9,8.9c-0.4,1-0.8,1.6-1.2,2
						c-0.2,0.1-0.3,0.1-0.3,0.1c-1.9-1.1-1.8-1.2-1.8-1.2L98.3,78.1z"/>
				</g>
				<g>
					<path class="st0" d="M105,71.1l-1-0.7c0,0,0-0.1,0-0.2c0.1,0,0,0,0,0c0.2-0.4,0.7-1.9,0.5-3.6c-0.3-5.6,2.3-7.1,3.3-7.4
						c0.2-0.1,0.3-0.1,0.3-0.1c2.1,1.2,2,1.4,2,1.4L105,71.1z"/>
					<path class="st7" d="M105,71.1l-1-0.7c0,0,0-0.1,0-0.2c0.1,0,0,0,0,0c1.4-0.5,1-4.8,2.6-9c0.4-1,0.8-1.7,1.2-2
						c0.2-0.1,0.3-0.1,0.3-0.1c2.1,1.2,2,1.4,2,1.4L105,71.1z"/>
				</g>
			</g>
			<g>
				<g>
					<path class="st0" d="M99,78.6l1,0.5c0,0,0,0.1,0,0.2c0,0,0,0,0,0c-0.1,0.5-0.4,1.9,0,3.6c1,5.3-1.3,7.3-2.1,7.8
						c-0.2,0.1-0.3,0.2-0.3,0.2c-2.1-0.8-2-0.9-2-0.9L99,78.6z"/>
					<path class="st7" d="M99,78.6l1,0.5c0,0,0,0.1,0,0.2c0,0,0,0,0,0c-1.2,0.8-0.3,4.8-1.3,9.3c-0.2,1-0.5,1.7-0.8,2.2
						c-0.2,0.1-0.3,0.2-0.3,0.2c-2.1-0.8-2-0.9-2-0.9L99,78.6z"/>
				</g>
				<g>
					<path class="st0" d="M104.4,70.6l-1.1-0.5c0,0,0-0.1,0-0.2c0.1,0,0,0,0,0c0.1-0.5,0.3-2-0.2-3.7c-1.3-5.4,1.1-7.4,2-7.9
						c0.2-0.1,0.3-0.2,0.3-0.2c2.3,0.9,2.2,1,2.2,1L104.4,70.6z"/>
					<path class="st7" d="M104.4,70.6l-1.1-0.5c0,0,0-0.1,0-0.2c0.1,0,0,0,0,0c1.3-0.8,0.1-4.9,1-9.4c0.2-1.1,0.5-1.8,0.8-2.2
						c0.2-0.1,0.3-0.2,0.3-0.2c2.3,0.9,2.2,1,2.2,1L104.4,70.6z"/>
				</g>
			</g>
			<g>
				<g>
					<path class="st0" d="M99.7,79l1.1,0.3c0,0,0,0.1,0,0.2c0,0,0,0,0,0c0,0.5,0,2,0.7,3.5c1.9,5,0,7.4-0.7,8.1
						c-0.2,0.1-0.3,0.2-0.3,0.2c-2.1-0.4-2.1-0.5-2.1-0.5L99.7,79z"/>
					<path class="st7" d="M99.7,79l1.1,0.3c0,0,0,0.1,0,0.2c0,0,0,0,0,0c-1.1,1,0.5,4.8,0.3,9.3c0,1.1-0.2,1.8-0.4,2.3
						c-0.2,0.1-0.3,0.2-0.3,0.2c-2.1-0.4-2.1-0.5-2.1-0.5L99.7,79z"/>
				</g>
				<g>
					<path class="st0" d="M103.7,70.1l-1.2-0.3c0,0,0-0.1,0-0.2c0.1,0,0,0,0,0c0-0.5,0-2-0.8-3.6c-2.2-5.1-0.2-7.4,0.6-8.1
						c0.2-0.2,0.3-0.2,0.3-0.2c2.4,0.5,2.3,0.6,2.3,0.6L103.7,70.1z"/>
					<path class="st7" d="M103.7,70.1l-1.2-0.3c0,0,0-0.1,0-0.2c0.1,0,0,0,0,0c1.1-1-0.7-4.8-0.6-9.4c0-1.1,0.2-1.8,0.4-2.3
						c0.2-0.2,0.3-0.2,0.3-0.2c2.4,0.5,2.3,0.6,2.3,0.6L103.7,70.1z"/>
				</g>
			</g>
			<g>
				<g>
					<path class="st0" d="M100.5,79.2l1.1,0.1c0,0,0,0.1,0.1,0.2c-0.1,0,0,0,0,0c0,0.5,0.3,1.9,1.3,3.4c2.7,4.6,1.3,7.3,0.7,8.1
						c-0.1,0.2-0.2,0.3-0.2,0.3c-2.2,0-2.2-0.2-2.2-0.2L100.5,79.2z"/>
					<path class="st7" d="M100.5,79.2l1.1,0.1c0,0,0,0.1,0.1,0.2c-0.1,0,0,0,0,0c-0.9,1.2,1.3,4.6,1.9,9.1c0.2,1.1,0.1,1.8,0,2.3
						c-0.1,0.2-0.2,0.3-0.2,0.3c-2.2,0-2.2-0.2-2.2-0.2L100.5,79.2z"/>
				</g>
				<g>
					<path class="st0" d="M102.9,69.8l-1.3-0.1c0,0,0-0.1,0-0.2c0.1,0,0,0,0,0c-0.1-0.5-0.4-1.9-1.4-3.4c-3-4.6-1.5-7.3-0.8-8.1
						c0.2-0.2,0.2-0.3,0.2-0.3c2.4,0,2.4,0.2,2.4,0.2L102.9,69.8z"/>
					<path class="st7" d="M102.9,69.8l-1.3-0.1c0,0,0-0.1,0-0.2c0.1,0,0,0,0,0c1-1.2-1.5-4.6-2.2-9.2c-0.2-1.1-0.2-1.8,0-2.3
						c0.2-0.2,0.2-0.3,0.2-0.3c2.4,0,2.4,0.2,2.4,0.2L102.9,69.8z"/>
				</g>
			</g>
			<g>
				<g>
					<path class="st0" d="M101.3,79.3l1.1-0.1c0,0,0,0.1,0.1,0.2c-0.1,0,0,0,0,0c0.1,0.5,0.7,1.9,1.8,3.1c3.5,4.1,2.5,7,2.1,7.8
						c-0.1,0.2-0.2,0.3-0.2,0.3c-2.2,0.4-2.2,0.2-2.2,0.2L101.3,79.3z"/>
					<path class="st7" d="M101.3,79.3l1.1-0.1c0,0,0,0.1,0.1,0.2c-0.1,0,0,0,0,0c-0.6,1.3,2.1,4.3,3.5,8.6c0.3,1,0.4,1.8,0.4,2.3
						c-0.1,0.2-0.2,0.3-0.2,0.3c-2.2,0.4-2.2,0.2-2.2,0.2L101.3,79.3z"/>
				</g>
				<g>
					<path class="st0" d="M102,69.6l-1.2,0.1c0,0,0-0.1-0.1-0.2c0.1,0,0,0,0,0c-0.1-0.5-0.7-1.9-2-3.1c-3.8-4-2.7-6.9-2.2-7.8
						c0.1-0.2,0.2-0.3,0.2-0.3c2.4-0.4,2.4-0.2,2.4-0.2L102,69.6z"/>
					<path class="st7" d="M102,69.6l-1.2,0.1c0,0,0-0.1-0.1-0.2c0.1,0,0,0,0,0c0.8-1.3-2.3-4.3-3.8-8.6c-0.4-1-0.5-1.8-0.4-2.3
						c0.1-0.2,0.2-0.3,0.2-0.3c2.4-0.4,2.4-0.2,2.4-0.2L102,69.6z"/>
				</g>
			</g>
			<g>
				<g>
					<path class="st0" d="M102.2,79.3l1.1-0.3c0,0,0,0,0.1,0.2c-0.1,0,0,0,0,0c0.2,0.4,1,1.7,2.3,2.7c4.2,3.4,3.7,6.4,3.4,7.4
						c-0.1,0.2-0.1,0.3-0.1,0.3c-2.1,0.7-2.1,0.6-2.1,0.6L102.2,79.3z"/>
					<path class="st7" d="M102.2,79.3l1.1-0.3c0,0,0,0,0.1,0.2c-0.1,0,0,0,0,0c-0.4,1.4,2.9,3.9,4.9,7.9c0.5,1,0.7,1.7,0.8,2.2
						c-0.1,0.2-0.1,0.3-0.1,0.3c-2.1,0.7-2.1,0.6-2.1,0.6L102.2,79.3z"/>
				</g>
				<g>
					<path class="st0" d="M101.2,69.6l-1.2,0.4c0,0,0-0.1-0.1-0.1c0.1,0,0,0,0,0c-0.2-0.4-1-1.7-2.5-2.7c-4.5-3.3-3.9-6.3-3.5-7.3
						c0.1-0.2,0.1-0.3,0.1-0.3c2.3-0.8,2.3-0.7,2.3-0.7L101.2,69.6z"/>
					<path class="st7" d="M101.2,69.6l-1.2,0.4c0,0,0-0.1-0.1-0.1c0.1,0,0,0,0,0c0.5-1.4-3-3.8-5.2-7.8c-0.5-0.9-0.8-1.6-0.8-2.2
						c0.1-0.2,0.1-0.3,0.1-0.3c2.3-0.8,2.3-0.7,2.3-0.7L101.2,69.6z"/>
				</g>
			</g>
			<g>
				<g>
					<path class="st0" d="M103,79.1l1-0.5c0,0,0,0,0.1,0.1c-0.1,0,0,0,0,0c0.3,0.4,1.3,1.5,2.8,2.3c4.7,2.6,4.8,5.7,4.6,6.7
						c0,0.2-0.1,0.3-0.1,0.3c-1.9,1.1-2,1-2,1L103,79.1z"/>
					<path class="st7" d="M103,79.1l1-0.5c0,0,0,0,0.1,0.1c-0.1,0,0,0,0,0c-0.2,1.5,3.5,3.4,6.3,6.9c0.7,0.8,1,1.5,1.2,2
						c0,0.2-0.1,0.3-0.1,0.3c-1.9,1.1-2,1-2,1L103,79.1z"/>
				</g>
				<g>
					<path class="st0" d="M100.3,69.7l-1.1,0.6c0,0,0-0.1-0.1-0.1c0.1,0,0,0,0,0c-0.3-0.4-1.3-1.5-2.9-2.3c-5-2.5-4.9-5.6-4.7-6.6
						c0-0.2,0.1-0.4,0.1-0.4c2.1-1.2,2.2-1,2.2-1L100.3,69.7z"/>
					<path class="st7" d="M100.3,69.7l-1.1,0.6c0,0,0-0.1-0.1-0.1c0.1,0,0,0,0,0c0.3-1.5-3.7-3.3-6.5-6.8c-0.7-0.8-1-1.5-1.2-2
						c0-0.2,0.1-0.4,0.1-0.4c2.1-1.2,2.2-1,2.2-1L100.3,69.7z"/>
				</g>
			</g>
			<g>
				<g>
					<path class="st0" d="M103.8,78.7l0.9-0.6c0,0,0,0,0.1,0.1c0,0,0,0,0,0c0.3,0.3,1.5,1.3,3.1,1.8c5.1,1.8,5.7,4.8,5.7,5.8
						c0,0.2,0,0.4,0,0.4c-1.7,1.4-1.8,1.3-1.8,1.3L103.8,78.7z"/>
					<path class="st7" d="M103.8,78.7l0.9-0.6c0,0,0,0,0.1,0.1c0,0,0,0,0,0c0.1,1.5,4,2.7,7.4,5.7c0.8,0.7,1.3,1.3,1.5,1.8
						c0,0.2,0,0.4,0,0.4c-1.7,1.4-1.8,1.3-1.8,1.3L103.8,78.7z"/>
				</g>
				<g>
					<path class="st0" d="M99.5,70l-1,0.7c0,0,0-0.1-0.1-0.1c0.1-0.1,0,0,0,0c-0.4-0.3-1.5-1.3-3.3-1.7c-5.3-1.6-5.8-4.6-5.8-5.7
						c0-0.2,0-0.4,0-0.4c1.9-1.5,2-1.4,2-1.4L99.5,70z"/>
					<path class="st7" d="M99.5,70l-1,0.7c0,0,0-0.1-0.1-0.1c0.1-0.1,0,0,0,0c0-1.5-4.2-2.6-7.6-5.6c-0.8-0.7-1.3-1.3-1.5-1.8
						c0-0.2,0-0.4,0-0.4c1.9-1.5,2-1.4,2-1.4L99.5,70z"/>
				</g>
			</g>
			<g>
				<g>
					<path class="st0" d="M104.5,78.3l0.8-0.8c0,0,0,0,0.2,0.1c0,0,0,0,0,0c0.4,0.3,1.7,1,3.4,1.2c5.3,0.9,6.4,3.7,6.6,4.7
						c0,0.2,0.1,0.4,0.1,0.4c-1.4,1.7-1.5,1.6-1.5,1.6L104.5,78.3z"/>
					<path class="st7" d="M104.5,78.3l0.8-0.8c0,0,0,0,0.2,0.1c0,0,0,0,0,0c0.3,1.4,4.4,1.9,8.2,4.4c0.9,0.6,1.5,1.1,1.8,1.5
						c0,0.2,0.1,0.4,0.1,0.4c-1.4,1.7-1.5,1.6-1.5,1.6L104.5,78.3z"/>
				</g>
				<g>
					<path class="st0" d="M98.7,70.4l-0.9,0.9c0,0,0,0-0.2-0.1c0-0.1,0,0,0,0c-0.4-0.3-1.7-1-3.5-1.1c-5.5-0.6-6.5-3.5-6.7-4.6
						c0-0.2-0.1-0.4-0.1-0.4c1.6-1.8,1.7-1.7,1.7-1.7L98.7,70.4z"/>
					<path class="st7" d="M98.7,70.4l-0.9,0.9c0,0,0,0-0.2-0.1c0-0.1,0,0,0,0c-0.3-1.5-4.6-1.8-8.5-4.2c-0.9-0.5-1.5-1-1.8-1.5
						c0-0.2-0.1-0.4-0.1-0.4c1.6-1.8,1.7-1.7,1.7-1.7L98.7,70.4z"/>
				</g>
			</g>
			<g>
				<g>
					<path class="st0" d="M105.1,77.7l0.6-0.9c0,0,0,0,0.2,0c0,0,0,0,0,0c0.4,0.2,1.8,0.7,3.6,0.6c5.4,0,7,2.5,7.4,3.5
						c0.1,0.2,0.1,0.3,0.1,0.3c-1.1,1.9-1.2,1.8-1.2,1.8L105.1,77.7z"/>
					<path class="st7" d="M105.1,77.7l0.6-0.9c0,0,0,0,0.2,0c0,0,0,0,0,0c0.6,1.3,4.7,1.1,8.9,2.9c1,0.4,1.6,0.8,2,1.2
						c0.1,0.2,0.1,0.3,0.1,0.3c-1.1,1.9-1.2,1.8-1.2,1.8L105.1,77.7z"/>
				</g>
				<g>
					<path class="st0" d="M98.1,70.9l-0.7,1c0,0-0.1,0-0.2,0c0-0.1,0,0,0,0c-0.4-0.2-1.9-0.6-3.7-0.5c-5.5,0.3-7.1-2.3-7.4-3.3
						c-0.1-0.2-0.1-0.3-0.1-0.3c1.2-2.1,1.4-2,1.4-2L98.1,70.9z"/>
					<path class="st7" d="M98.1,70.9l-0.7,1c0,0-0.1,0-0.2,0c0-0.1,0,0,0,0c-0.5-1.4-4.8-1-9.1-2.7c-1-0.4-1.6-0.8-2-1.2
						c-0.1-0.2-0.1-0.3-0.1-0.3c1.2-2.1,1.4-2,1.4-2L98.1,70.9z"/>
				</g>
			</g>
			<g>
				<g>
					<path class="st0" d="M105.6,77l0.5-1c0,0,0.1,0,0.2,0c0,0,0,0,0,0c0.5,0.1,2,0.4,3.6,0c5.3-1,7.3,1.3,7.8,2.1
						c0.1,0.2,0.2,0.3,0.2,0.3c-0.8,2.1-0.9,2-0.9,2L105.6,77z"/>
					<path class="st7" d="M105.6,77l0.5-1c0,0,0.1,0,0.2,0c0,0,0,0,0,0c0.8,1.2,4.8,0.3,9.2,1.3c1.1,0.2,1.8,0.5,2.2,0.8
						c0.1,0.2,0.2,0.3,0.2,0.3c-0.8,2.1-0.9,2-0.9,2L105.6,77z"/>
				</g>
				<g>
					<path class="st0" d="M97.5,71.6L97,72.7c0,0-0.1,0-0.2,0c0-0.1,0,0,0,0c-0.5-0.1-2-0.3-3.7,0.2c-5.4,1.3-7.4-1.1-7.9-2
						c-0.1-0.2-0.2-0.3-0.2-0.3c0.9-2.3,1-2.2,1-2.2L97.5,71.6z"/>
					<path class="st7" d="M97.5,71.6L97,72.7c0,0-0.1,0-0.2,0c0-0.1,0,0,0,0c-0.8-1.3-4.9-0.1-9.4-1c-1.1-0.2-1.8-0.5-2.2-0.8
						c-0.1-0.2-0.2-0.3-0.2-0.3c0.9-2.3,1-2.2,1-2.2L97.5,71.6z"/>
				</g>
			</g>
			<g>
				<g>
					<path class="st0" d="M105.9,76.3l0.3-1.1c0,0,0,0,0.2,0c0,0,0,0,0,0c0.5,0,2,0,3.5-0.7c5-1.9,7.4,0,8.1,0.7
						c0.1,0.2,0.2,0.3,0.2,0.3c-0.4,2.2-0.5,2.1-0.5,2.1L105.9,76.3z"/>
					<path class="st7" d="M105.9,76.3l0.3-1.1c0,0,0,0,0.2,0c0,0,0,0,0,0c1,1.1,4.8-0.5,9.3-0.3c1.1,0,1.8,0.2,2.3,0.4
						c0.1,0.2,0.2,0.3,0.2,0.3c-0.4,2.2-0.5,2.1-0.5,2.1L105.9,76.3z"/>
				</g>
				<g>
					<path class="st0" d="M97.1,72.3l-0.3,1.2c0,0-0.1,0-0.2,0c0-0.1,0,0,0,0c-0.5,0-2,0-3.6,0.8c-5.1,2.2-7.4,0.2-8.1-0.6
						c-0.2-0.2-0.2-0.3-0.2-0.3c0.5-2.4,0.6-2.3,0.6-2.3L97.1,72.3z"/>
					<path class="st7" d="M97.1,72.3l-0.3,1.2c0,0-0.1,0-0.2,0c0-0.1,0,0,0,0c-1-1.2-4.8,0.7-9.4,0.6c-1.1,0-1.8-0.2-2.3-0.4
						c-0.2-0.2-0.2-0.3-0.2-0.3c0.5-2.4,0.6-2.3,0.6-2.3L97.1,72.3z"/>
				</g>
			</g>
		</g>
		
			<ellipse transform="matrix(4.330335e-03 -1 1 4.330335e-03 26.5091 175.6599)" class="st8" cx="101.5" cy="74.5" rx="8.7" ry="8.7"/>
		
			<ellipse transform="matrix(4.330335e-03 -1 1 4.330335e-03 26.5077 175.6613)" class="st9" cx="101.5" cy="74.5" rx="3.7" ry="3.7"/>
	</g>
</g>
</svg>
